<?xml version="1.0" encoding="UTF-8" standalone="no"?>
<svg
   xmlns:dc="http://purl.org/dc/elements/1.1/"
   xmlns:cc="http://creativecommons.org/ns#"
   xmlns:rdf="http://www.w3.org/1999/02/22-rdf-syntax-ns#"
   xmlns:svg="http://www.w3.org/2000/svg"
   xmlns="http://www.w3.org/2000/svg"
   xmlns:sodipodi="http://sodipodi.sourceforge.net/DTD/sodipodi-0.dtd"
   xmlns:inkscape="http://www.inkscape.org/namespaces/inkscape"
   width="210mm"
   height="297mm"
   viewBox="0 0 210 297"
   version="1.1"
   id="svg8"
   inkscape:version="1.0 (b51213c273, 2020-08-10)"
   sodipodi:docname="drawing.svg">
  <defs
     id="defs2" />
  <sodipodi:namedview
     id="base"
     pagecolor="#ffffff"
     bordercolor="#666666"
     borderopacity="1.0"
     inkscape:pageopacity="0.0"
     inkscape:pageshadow="2"
     inkscape:zoom="0.90509668"
     inkscape:cx="438.57642"
     inkscape:cy="219.0452"
     inkscape:document-units="mm"
     inkscape:current-layer="layer1"
     inkscape:document-rotation="0"
     showgrid="false"
     inkscape:window-width="1366"
     inkscape:window-height="704"
     inkscape:window-x="1366"
     inkscape:window-y="27"
     inkscape:window-maximized="1" />
  <metadata
     id="metadata5">
    <rdf:RDF>
      <cc:Work
         rdf:about="">
        <dc:format>image/svg+xml</dc:format>
        <dc:type
           rdf:resource="http://purl.org/dc/dcmitype/StillImage" />
        <dc:title />
      </cc:Work>
    </rdf:RDF>
  </metadata>
  <g
     inkscape:label="Layer 1"
     inkscape:groupmode="layer"
     id="layer1">
    <rect
       style="opacity:1;fill:#7ebdc2;fill-opacity:1;stroke:none;stroke-width:1.47194;stroke-linecap:round;stroke-linejoin:round;stroke-miterlimit:4;stroke-dasharray:none;stroke-opacity:1"
       id="rect985"
       width="32.224312"
       height="32.224312"
       x="-65.437202"
       y="48.212067" />
    <rect
       y="80.436371"
       x="-65.437202"
       height="32.224312"
       width="32.224312"
       id="rect987"
       style="opacity:1;fill:#bb4430;fill-opacity:1;stroke:none;stroke-width:1.47194;stroke-linecap:round;stroke-linejoin:round;stroke-miterlimit:4;stroke-dasharray:none;stroke-opacity:1" />
    <rect
       style="opacity:1;fill:#efe6dd;fill-opacity:1;stroke:none;stroke-width:1.47194;stroke-linecap:round;stroke-linejoin:round;stroke-miterlimit:4;stroke-dasharray:none;stroke-opacity:1"
       id="rect989"
       width="32.224312"
       height="32.224312"
       x="-65.437202"
       y="112.6607" />
    <rect
       y="144.88498"
       x="-65.437202"
       height="32.224312"
       width="32.224312"
       id="rect991"
       style="opacity:1;fill:#231f20;fill-opacity:1;stroke:none;stroke-width:1.47194;stroke-linecap:round;stroke-linejoin:round;stroke-miterlimit:4;stroke-dasharray:none;stroke-opacity:1" />
    <rect
       style="opacity:1;fill:#f9cf3b;fill-opacity:1;stroke:none;stroke-width:1.47194;stroke-linecap:round;stroke-linejoin:round;stroke-miterlimit:4;stroke-dasharray:none;stroke-opacity:1"
       id="rect9844"
       width="32.224312"
       height="32.224312"
       x="-65.437202"
       y="15.987754" />
    <g
       id="g901"
       inkscape:export-xdpi="96"
       inkscape:export-ydpi="96">
      <g
         id="g864"
         transform="translate(-9.0819355,0.65727818)">
        <rect
           style="fill:#ffffff;fill-opacity:1;stroke:none;stroke-width:0.780983;stroke-linecap:square;stroke-linejoin:miter;stroke-miterlimit:4;stroke-dasharray:none;stroke-opacity:1;paint-order:normal"
           id="rect891"
           width="18.343578"
           height="18.343578"
           x="55.942284"
           y="35.476917" />
        <path
           style="fill:#000000;fill-opacity:1;stroke-width:0.0359304"
           d="m 60.083815,44.648705 v -5.030253 h 5.030254 5.030254 v 5.030253 5.030251 h -5.030254 -5.030254 z m 2.651665,2.507939 c 0.0988,-0.09881 0.04766,-0.235014 -0.174416,-0.464852 -0.544035,-0.562931 -0.824455,-1.282556 -0.824455,-2.115761 0,-0.779414 0.25137,-1.408388 0.78823,-1.972289 0.120676,-0.126764 0.228949,-0.26845 0.240603,-0.314858 0.02446,-0.09725 -0.03923,-0.191237 -0.129566,-0.191237 -0.21128,0 -0.744199,0.586302 -1.002674,1.103092 -0.218105,0.436111 -0.274171,0.716886 -0.271168,1.358139 0.0038,0.875743 0.141069,1.3619 0.556748,1.97617 0.167989,0.248243 0.450463,0.546406 0.590328,0.623115 0.09479,0.05199 0.173389,0.05145 0.22637,-0.0015 z m 4.994309,-0.008 c 0.137114,-0.07225 0.439341,-0.395454 0.607369,-0.649514 0.389746,-0.589313 0.524934,-1.085209 0.528945,-1.94024 0.0032,-0.641253 -0.05311,-0.922027 -0.271181,-1.358139 -0.258094,-0.516038 -0.793028,-1.102377 -1.006241,-1.102939 -0.08684,-2.69e-4 -0.150042,0.09524 -0.126125,0.19052 0.01154,0.0461 0.120308,0.187782 0.241642,0.314858 0.535479,0.560819 0.785373,1.183882 0.786697,1.961522 0.0013,0.843063 -0.27653,1.560791 -0.823821,2.127092 -0.158256,0.163756 -0.217535,0.251882 -0.217535,0.323413 0,0.175715 0.105073,0.225739 0.28025,0.133427 z m -1.655463,-0.62541 c 0.566253,-0.580115 0.64836,-1.323252 0.219963,-1.990852 -0.06039,-0.09411 -0.1229,-0.17111 -0.138909,-0.17111 -0.01597,0 -0.07885,0.08084 -0.139636,0.179653 -0.08521,0.138482 -0.131208,0.179651 -0.200703,0.179651 -0.103819,0 -0.102817,0.01035 -0.03955,-0.406644 0.09444,-0.622097 -0.06883,-1.074553 -0.581171,-1.610844 -0.148204,-0.15513 -0.283494,-0.282055 -0.300643,-0.282055 -0.01711,0 -0.03118,0.06905 -0.03118,0.153427 0,0.314614 -0.239374,0.974435 -0.510941,1.408395 -0.06223,0.09944 -0.19884,0.311584 -0.303583,0.47143 -0.224684,0.342884 -0.311955,0.533209 -0.373408,0.814341 -0.08986,0.411098 0.08116,0.902801 0.444563,1.278181 0.08279,0.08551 0.181248,0.172264 0.218803,0.192794 0.06008,0.03281 0.05843,0.02348 -0.01331,-0.0773 -0.167825,-0.235681 -0.127545,-0.758062 0.09218,-1.195615 0.110669,-0.22038 0.33155,-0.595224 0.398954,-0.677041 0.02573,-0.03118 0.118888,-0.183349 0.207104,-0.338158 l 0.160397,-0.281468 0.04588,0.104611 c 0.03207,0.0731 0.0436,0.276171 0.03828,0.674244 -0.0085,0.632354 0.01661,0.733693 0.204823,0.831043 0.05995,0.031 0.198612,0.0545 0.321498,0.0545 0.176882,0 0.222852,0.01261 0.253291,0.0695 0.07893,0.147472 0.0044,0.474128 -0.159891,0.703005 -0.186666,0.259685 -0.117956,0.228973 0.18723,-0.08369 z"
           id="path875" />
      </g>
      <text
         xml:space="preserve"
         style="font-style:normal;font-weight:normal;font-size:5.64605px;line-height:1.25;font-family:sans-serif;letter-spacing:0px;word-spacing:0px;fill:#000000;fill-opacity:1;stroke:none;stroke-width:0.211727"
         x="64.763535"
         y="46.965923"
         id="text7109"><tspan
           sodipodi:role="line"
           id="tspan7107"
           x="64.763535"
           y="46.965923"
           style="font-style:normal;font-variant:normal;font-weight:normal;font-stretch:normal;font-size:5.64605px;font-family:'Ubuntu Condensed';-inkscape-font-specification:'Ubuntu Condensed, Normal';font-variant-ligatures:normal;font-variant-caps:normal;font-variant-numeric:normal;font-variant-east-asian:normal;stroke-width:0.211727">freeCodeCamp, where I'm always learning</tspan></text>
    </g>
    <g
       id="g894"
       inkscape:export-xdpi="96"
       inkscape:export-ydpi="96">
      <g
         id="g872"
         transform="translate(-0.03832212,-0.34489594)">
        <rect
           style="fill:#ffffff;fill-opacity:1;stroke:none;stroke-width:0.780981;stroke-linecap:square;stroke-linejoin:miter;stroke-miterlimit:4;stroke-dasharray:none;stroke-opacity:1;paint-order:normal"
           id="rect889"
           width="18.343578"
           height="18.343578"
           x="58.160233"
           y="58.731133" />
        <path
           style="fill:#000000;fill-opacity:1;stroke-width:0.0236162"
           d="M 64.810418,71.272533 62.30177,69.615762 v -1.715543 -1.715543 l 2.497412,-1.650826 c 1.373577,-0.907952 2.513352,-1.650742 2.532839,-1.650643 0.01946,9.1e-5 1.159262,0.742927 2.53284,1.650727 l 2.497415,1.650552 -1.78e-4,1.713178 -1.77e-4,1.713185 -2.501331,1.652534 c -1.375739,0.908906 -2.510368,1.655559 -2.521401,1.659238 -0.01103,0.0038 -1.148964,-0.738858 -2.528718,-1.650088 z m 2.025663,-0.681464 v -0.802808 l -0.956246,-0.637784 c -0.525922,-0.350778 -0.961794,-0.637783 -0.968596,-0.637783 -0.02624,0 -1.219944,0.80699 -1.209351,0.817591 0.01818,0.01818 3.116335,2.063583 3.125676,2.063583 0.0051,0 0.0085,-0.361257 0.0085,-0.802799 z m 2.585979,-0.243901 c 0.844277,-0.557241 1.538709,-1.016533 1.543177,-1.02064 0.0087,-0.008 -1.19176,-0.813834 -1.212432,-0.813834 -0.0068,0 -0.442675,0.287005 -0.968604,0.637783 l -0.956233,0.637784 v 0.804199 c 0,0.637297 0.0063,0.800428 0.02953,0.786041 0.01622,-0.01 0.720294,-0.474084 1.564579,-1.031333 z m -1.334255,-1.944576 c 0.402623,-0.268374 0.732037,-0.495141 0.732037,-0.503917 0,-0.02076 -1.45666,-0.991886 -1.487821,-0.991886 -0.03853,0 -1.489563,0.974874 -1.482478,0.996046 0.0094,0.02799 1.441317,0.984296 1.476635,0.986159 0.01622,7.61e-4 0.358997,-0.218022 0.761627,-0.486402 z m -4.434823,-0.271126 c 0.179047,-0.118757 0.325538,-0.223513 0.325538,-0.232791 0,-0.0184 -0.640529,-0.448714 -0.667974,-0.448714 -0.0093,0 -0.01688,0.201923 -0.01688,0.448714 0,0.246783 0.0076,0.448706 0.01688,0.448706 0.0093,0 0.163389,-0.09717 0.342436,-0.215915 z m 7.708946,-0.674227 c -0.01901,-0.01901 -0.679786,0.419489 -0.671154,0.445368 0.0038,0.01095 0.15008,0.115509 0.325409,0.232387 l 0.318786,0.212493 0.02066,-0.437891 c 0.01141,-0.240837 0.0142,-0.444395 0.0063,-0.452357 z m -5.482093,-0.810374 0.956246,-0.637784 v -0.804199 c 0,-0.636955 -0.0063,-0.800557 -0.02953,-0.786686 -0.04259,0.02525 -2.529692,1.66669 -2.848447,1.879905 l -0.268381,0.179527 0.599007,0.401997 c 0.329457,0.221101 0.607075,0.402681 0.616937,0.40351 0.0099,7.6e-4 0.448248,-0.285484 0.974164,-0.63627 z m 4.489871,0.234303 0.604536,-0.40348 -0.162071,-0.108877 c -0.204347,-0.13729 -2.91479,-1.926462 -2.95469,-1.950409 -0.02345,-0.01407 -0.02953,0.149419 -0.02953,0.78648 v 0.804199 l 0.950549,0.636232 c 0.522804,0.349935 0.958685,0.636932 0.968609,0.637784 0.01,7.6e-4 0.290085,-0.180013 0.622586,-0.401929 z"
           id="path877" />
      </g>
      <text
         xml:space="preserve"
         style="font-style:normal;font-weight:normal;font-size:5.64444px;line-height:1.25;font-family:sans-serif;letter-spacing:0px;word-spacing:0px;fill:#000000;fill-opacity:1;stroke:none;stroke-width:0.167675"
         x="76.155045"
         y="69.217491"
         id="text7113"><tspan
           sodipodi:role="line"
           id="tspan7111"
           x="76.155045"
           y="69.217491"
           style="font-style:normal;font-variant:normal;font-weight:normal;font-stretch:normal;font-size:5.64444px;font-family:'Ubuntu Condensed';-inkscape-font-specification:'Ubuntu Condensed, Normal';font-variant-ligatures:normal;font-variant-caps:normal;font-variant-numeric:normal;font-variant-east-asian:normal;stroke-width:0.167675">CodePen, my playground for CSS Animations</tspan></text>
    </g>
    <g
       id="g887"
       inkscape:export-xdpi="96"
       inkscape:export-ydpi="96">
      <g
         id="g880">
        <rect
           style="fill:#ffffff;fill-opacity:1;stroke:none;stroke-width:0.780981;stroke-linecap:square;stroke-linejoin:miter;stroke-miterlimit:4;stroke-dasharray:none;stroke-opacity:1;paint-order:normal"
           id="rect881"
           width="18.343578"
           height="18.343578"
           x="59.599083"
           y="83.160873" />
        <path
           style="fill:#000000;fill-opacity:1;stroke-width:0.0196878"
           d="m 64.547822,97.357991 c -0.346375,-0.03314 -0.646102,-0.281973 -0.770874,-0.639994 -0.03488,-0.100066 -0.03633,-0.274951 -0.03633,-4.386343 0,-4.111386 0.0015,-4.286271 0.03633,-4.386331 0.105641,-0.303146 0.304445,-0.501955 0.607587,-0.607592 0.100068,-0.03486 0.274955,-0.03631 4.386342,-0.03631 4.111386,0 4.286271,0.0013 4.386337,0.03631 0.30314,0.105644 0.501942,0.304446 0.607592,0.607592 0.03486,0.10006 0.03631,0.274945 0.03631,4.386331 0,4.111392 -0.0013,4.286277 -0.03631,4.386343 -0.103768,0.297734 -0.2916,0.488849 -0.596482,0.606882 -0.09251,0.03587 -0.23419,0.03707 -4.318699,0.03885 -2.322676,0.0013 -4.258489,-0.0013 -4.301803,-0.0057 z m 2.188868,-1.139375 c 0.03055,-0.02243 0.07105,-0.07115 0.08998,-0.108286 0.03219,-0.06318 0.03441,-0.221864 0.03448,-2.474987 3.2e-5,-2.609971 0.0051,-2.479327 -0.107272,-2.583392 l -0.0533,-0.04924 -0.65751,-0.0057 c -0.728813,-0.0063 -0.740941,-0.0044 -0.816759,0.119833 -0.03757,0.0616 -0.03844,0.117798 -0.03851,2.511134 0,2.72834 -0.0113,2.513454 0.135779,2.599635 0.06869,0.04024 0.09068,0.04132 0.714238,0.03663 0.615634,-0.0044 0.645761,-0.0066 0.698919,-0.04569 z m 2.402075,0.01223 c 0.118907,-0.07251 0.113533,-0.0065 0.12515,-1.536631 l 0.01071,-1.407692 0.05057,-0.169118 c 0.171665,-0.574092 0.530846,-0.834835 1.030221,-0.747868 0.260578,0.04537 0.431629,0.176995 0.552064,0.424798 0.132431,0.272498 0.132564,0.274152 0.145448,1.883549 l 0.0116,1.450418 0.04626,0.04918 c 0.08528,0.09073 0.112265,0.0936 0.824663,0.08758 l 0.672049,-0.0057 0.06078,-0.05824 c 0.0334,-0.03207 0.07025,-0.08986 0.08183,-0.128502 0.02941,-0.09822 0.01147,-2.969837 -0.02028,-3.238939 -0.08017,-0.679912 -0.256795,-1.123392 -0.577008,-1.448757 -0.198009,-0.201204 -0.485718,-0.353572 -0.802337,-0.424918 -0.186818,-0.04208 -0.6926,-0.05659 -0.912309,-0.02617 -0.222713,0.03086 -0.523552,0.128084 -0.674368,0.217991 -0.133008,0.07929 -0.318882,0.245096 -0.425228,0.379327 l -0.0755,0.09529 v -0.219291 c 0,-0.242751 -0.01914,-0.304369 -0.115948,-0.373313 -0.05545,-0.03948 -0.08078,-0.04094 -0.710034,-0.04094 -0.720966,0 -0.73456,0.0019 -0.808903,0.124003 -0.03758,0.0616 -0.03847,0.117741 -0.03853,2.504632 0,2.327149 0.0019,2.444751 0.03587,2.508688 0.07261,0.135391 0.09389,0.139035 0.810297,0.138953 0.59915,-7.6e-5 0.644183,-0.0025 0.702892,-0.03834 z M 66.240984,90.53002 c 0.212712,-0.04487 0.3733,-0.13342 0.532171,-0.293475 0.156063,-0.157217 0.249868,-0.318559 0.293938,-0.505504 0.08952,-0.379796 -0.02497,-0.765447 -0.305884,-1.030468 -0.4336,-0.40903 -1.080908,-0.405342 -1.494779,0.0086 -0.214988,0.215 -0.321128,0.468772 -0.321128,0.767825 0,0.417534 0.227601,0.782793 0.599522,0.962088 0.248656,0.119871 0.440398,0.144941 0.69616,0.091 z"
           id="path879" />
      </g>
      <text
         xml:space="preserve"
         style="font-style:normal;font-weight:normal;font-size:5.64444px;line-height:1.25;font-family:sans-serif;letter-spacing:0px;word-spacing:0px;fill:#000000;fill-opacity:1;stroke:none;stroke-width:0.167675"
         x="77.468529"
         y="93.992126"
         id="text7117"><tspan
           sodipodi:role="line"
           id="tspan7115"
           x="77.468529"
           y="93.992126"
           style="font-style:normal;font-variant:normal;font-weight:normal;font-stretch:normal;font-size:5.64444px;font-family:'Ubuntu Condensed';-inkscape-font-specification:'Ubuntu Condensed, Normal';font-variant-ligatures:normal;font-variant-caps:normal;font-variant-numeric:normal;font-variant-east-asian:normal;stroke-width:0.167675">Linkedin, my professional profile</tspan></text>
    </g>
  </g>
</svg>
